<?xml version="1.0" encoding="UTF-8"?>
<svg id="Layer_2" data-name="Layer 2" xmlns="http://www.w3.org/2000/svg" viewBox="0 0 86.77 86.93">
  <defs>
    <style>
      .cls-1 {
        fill: #868686;
      }

      .cls-2 {
        fill: #000;
      }
    </style>
  </defs>
  <g id="Layer_1-2" data-name="Layer 1">
    <g>
      <path class="cls-2" d="M0,.16l63.66-.16s21,2.91,22.62,23.43l.48,63.5h-9.53s-7.59-2.26-8.08-8.89V23.59s-.81-5.98-6.46-6.14l-54.13-.16S.26,17.11,.02,8.38L0,.16Z"/>
      <path class="cls-2" d="M51.99,34.82l.12,8.97s-1.33,7.84-8.56,8.36-19.43,0-19.43,0c0,0-6.99,.57-6.87,7.88,.12,7.31,.24,18.58,.24,18.58,0,0-1.17,6.99-8.08,8.32H.04s-.04-30.13-.04-30.13c0,0,2.91-19.87,23.71-21.93l28.28-.04Z"/>
      <path class="cls-1" d="M41.29,86.93h24.18v-6.11s.24-5.52-5.92-5.92h-23.63v6.07s.41,5.05,5.38,5.96Z"/>
    </g>
  </g>
</svg>